<svg xmlns="http://www.w3.org/2000/svg" width="18.375" height="21" viewBox="0 0 18.375 21"><defs><style>.a{fill:#2b2b2b;}</style></defs><path class="a" d="M18.375,14.766V.984A.982.982,0,0,0,17.391,0H3.938A3.939,3.939,0,0,0,0,3.938V17.063A3.939,3.939,0,0,0,3.938,21H17.391a.982.982,0,0,0,.984-.984v-.656a.992.992,0,0,0-.365-.767,9.147,9.147,0,0,1,0-3.064.977.977,0,0,0,.365-.763ZM5.25,5.5A.247.247,0,0,1,5.5,5.25h8.7a.247.247,0,0,1,.246.246v.82a.247.247,0,0,1-.246.246H5.5a.247.247,0,0,1-.246-.246Zm0,2.625A.247.247,0,0,1,5.5,7.875h8.7a.247.247,0,0,1,.246.246v.82a.247.247,0,0,1-.246.246H5.5a.247.247,0,0,1-.246-.246ZM15.643,18.375H3.938a1.313,1.313,0,1,1,0-2.625H15.643A14.766,14.766,0,0,0,15.643,18.375Z"/></svg>