<svg xmlns="http://www.w3.org/2000/svg" width="14.581" height="16.198" viewBox="0 0 14.581 16.198"><defs><style>.a{fill:#2b2b2b;}</style></defs><g transform="translate(0 0)"><path class="a" d="M11.61,19.67H9.99a.824.824,0,0,0,0,1.62h1.62a1.351,1.351,0,0,1,1.351,1.348V27.5A1.354,1.354,0,0,1,11.61,28.85H2.971A1.354,1.354,0,0,1,1.62,27.5v-4.86A1.351,1.351,0,0,1,2.971,21.29h1.62a.81.81,0,1,0,0-1.62H2.971A2.974,2.974,0,0,0,0,22.638V27.5A2.974,2.974,0,0,0,2.971,30.47H11.61A2.974,2.974,0,0,0,14.581,27.5v-4.86A2.974,2.974,0,0,0,11.61,19.67Z" transform="translate(0 -14.272)"/><path class="a" d="M15.1,4.092,16.42,2.774v8.845a.824.824,0,0,0,1.62,0V2.774l1.318,1.318A.81.81,0,0,0,20.5,2.947L17.8.245a.824.824,0,0,0-1.148,0l-2.7,2.7A.81.81,0,1,0,15.1,4.092Z" transform="translate(-9.939 -0.012)"/></g></svg>