<svg xmlns="http://www.w3.org/2000/svg" width="50.311" height="50.331" viewBox="0 0 50.311 50.331"><defs><style>.a{fill:none;stroke:#2b2b2b;stroke-width:3px;}</style></defs><path class="a" d="M49.835,27.531,26.246,3.949a3.729,3.729,0,0,0-1.693-.609S7.65,3.927,5.564,6.891,3.35,24.534,3.35,24.534a3.778,3.778,0,0,0,.609,1.693L27.532,49.834a2.125,2.125,0,0,0,3,0L49.835,30.527A2.133,2.133,0,0,0,49.835,27.531ZM21,21a5.493,5.493,0,1,1,1.614-3.889A5.5,5.5,0,0,1,21,21Z" transform="translate(-1.849 -1.837)"/></svg>